# AST/ASF file generated using VICON BodyLanguage
# -----------------------------------------------
:version 1.10
:name VICON
:units
  mass 1.0
  length 0.45
  angle deg
:documentation
   .ast/.asf automatically generated from VICON data using
   VICON BodyBuilder and BodyLanguage model FoxedUp or BRILLIANT.MOD
:root
   order TX TY TZ RX RY RZ
   axis XYZ
   position 0 0 0  
   orientation 0 0 0 
:bonedata
  begin
     id 1 
     name lhipjoint
     direction 0.440178 -0.822639 0.359871 
     length 2.53113 
     axis 0 0 0  XYZ
  end
  begin
     id 2 
     name lfemur
     direction 0.34202 -0.939693 0  
     length 7.88132  
     axis 0 0 20  XYZ
    dof rx ry rz
    limits (-160.0 20.0)
           (-70.0 70.0)
           (-60.0 70.0)
  end
  begin
     id 3 
     name ltibia
     direction 0.34202 -0.939693 0   
     length 8.43783   
     axis 0 0 20   XYZ
    dof rx
    limits (-10.0 170.0)
  end
  begin
     id 4 
     name lfoot
     direction 0.0886351 -0.243523 0.965837   
     length 2.63414   
     axis -90 7.62852e-016 20   XYZ
    dof rx rz
    limits (-45.0 90.0)
           (-70.0 20.0)
  end
  begin
     id 5 
     name ltoes
     direction 1.53703e-011 -4.21717e-011 1   
     length 1.31427   
     axis -90 7.62852e-016 20   XYZ
    dof rx
    limits (-90.0 20.0)
  end
  begin
     id 6 
     name rhipjoint
     direction -0.399779 -0.839773 0.367367   
     length 2.47948  
     axis 0 0 0  XYZ 
  end
  begin
     id 7 
     name rfemur
     direction -0.34202 -0.939693 0   
     length 7.74806   
     axis 0 0 -20   XYZ
    dof rx ry rz
    limits (-160.0 20.0)
           (-70.0 70.0)
           (-70.0 60.0)
  end
  begin
     id 8 
     name rtibia
     direction -0.34202 -0.939693 0   
     length 8.74432   
     axis 0 0 -20   XYZ
    dof rx
    limits (-10.0 170.0)
 end
 begin
     id 9 
     name rfoot
     direction -0.108514 -0.298139 0.948334   
     length 2.66102  
     axis -90 -7.62852e-016 -20   XYZ
    dof rx rz
    limits (-45.0 90.0)
           (-20.0 70.0)
  end
  begin
     id 10 
     name rtoes
     direction -1.53392e-011 -4.22077e-011 1   
     length 1.31983   
     axis -90 -7.62852e-016 -20   XYZ
    dof rx
    limits (-90.0 20.0)
  end
  begin
     id 11 
     name lowerback
     direction 0.0113257 0.999866 0.0118602   
     length 2.58694   
     axis 0 0 0   XYZ
    dof rx ry rz
    limits (-20.0 45.0)
           (-30.0 30.0)
           (-30.0 30.0)
  end
  begin
     id 12 
     name upperback
     direction -0.0164747 0.995193 -0.0965375   
     length 2.52368   
     axis 0 0 0   XYZ
    dof rx ry rz
    limits (-20.0 45.0)
           (-30.0 30.0)
           (-30.0 30.0)
  end
  begin
     id 13 
     name thorax
     direction -0.0194301 0.99433 -0.104552   
     length 2.56099   
     axis 0 0 0   XYZ
    dof rx ry rz
    limits (-20.0 45.0)
           (-30.0 30.0)
           (-30.0 30.0)
  end
  begin
     id 14 
     name lowerneck
     direction 0.0148543 0.995587 -0.092657   
     length 1.71582   
     axis 0 0 0   XYZ
    dof rx ry rz
    limits (-20.0 45.0)
           (-30.0 30.0)
           (-30.0 30.0)
  end
  begin
     id 15 
     name upperneck
     direction -0.0135467 0.993656 -0.111639   
     length 1.68937   
     axis 0 0 0   XYZ
    dof rx ry rz
    limits (-20.0 45.0)
           (-30.0 30.0)
           (-30.0 30.0)
  end
  begin
     id 16
     name head
     direction -0.00615349 0.999547 -0.029448  
     length 1.7462  
     axis 0 0 0   XYZ
    dof rx ry rz
    limits (-20.0 45.0)
           (-30.0 30.0)
           (-30.0 30.0)
  end
  begin
     id 17 
     name lclavicle
     direction 0.988267 0.149885 0.0293713  
     length 4.47222  
     axis 0 0 0   XYZ
    dof ry rz
    limits (-20.0 10.0)
           (0.0 20.0)
  end
  begin
     id 18 
     name lhumerus
     direction 1 -4.48986e-011 -1.14833e-027   
     length 5.37148   
     axis 180 -30 -90   XYZ
    dof rx ry rz
    limits (-60.0 90.0)
           (-90.0 90.0)
           (-90.0 90.0)
  end
  begin
     id 19
     name lradius
     direction 0.999998 0.00170963 -0.000987055   
     length 3.94212   
     axis 180 -30 -90   XYZ
    dof rx
    limits (-10.0 170.0)
  end
  begin
     id 20
     name lwrist
     direction 0.999998 7.53149e-005 -0.00194706   
     length 1.97106   
     axis 4.65056e-015 90 90   XYZ
    dof ry
    limits (-180.0 0.0)
 end
  begin
     id 21 
     name lhand
     direction 1 -4.48973e-011 -1.31746e-026   
     length 1.17917   
     axis 8.4065e-015 90 90   XYZ
    dof rx rz
    limits (-90.0 90.0)
           (-45.0 45.0)
  end
  begin
     id 22 
     name lfingers
     direction 1 -4.49107e-011 -2.63492e-026   
     length 0.950679   
     axis 1.6813e-014 90 90   XYZ
    dof rx
    limits (0.0 90.0)
  end
  begin
     id 23
     name lthumb
     direction 0.707107 -6.35048e-011 0.707107   
     length 1.36499   
     axis -90 45 2.85299e-015   XYZ
    dof rx rz
    limits (-45.0 45.0)
           (-45.0 45.0)
  end
  begin
     id 24 
     name rclavicle
     direction -0.996699 0.0642895 -0.0495725   
     length 4.62611  
     axis 0 0 0   XYZ 
    dof ry rz
    limits (-10.0 20.0)
           (-20.0 0.0)
  end
  begin
     id 25 
     name rhumerus
     direction -1 -4.48919e-011 -2.41059e-027  
     length 5.4981   
     axis 180 30 90   XYZ
    dof rx ry rz
    limits (-90.0 60.0)
           (-90.0 90.0)
           (-90.0 90.0)
  end
  begin
     id 26 
     name rradius
     direction -0.999999 0.00118101 -0.000681858   
     length 3.48381   
     axis 180 30 90   XYZ
    dof rx
    limits (-10.0 170.0)
  end
  begin
     id 27 
     name rwrist
     direction -0.999999 0.000321823 -0.00132288   
     length 1.7419   
     axis 4.65056e-015 -90 -90   XYZ
    dof ry
    limits (-180.0 0.0)
  end
  begin
     id 28
     name rhand
     direction -1 -4.49022e-011 -1.31746e-026   
     length 1.34932   
     axis 8.4065e-015 -90 -90   XYZ
    dof rx rz
    limits (-90.0 90.0)
           (-45.0 45.0)
  end
  begin
     id 29
     name rfingers
     direction -1 -4.49178e-011 -2.63492e-026   
     length 1.08785   
     axis 1.6813e-014 -90 -90   XYZ
    dof rx
    limits (0.0 90.0)
  end
  begin
     id 30
     name rthumb
     direction -0.707107 -6.34713e-011 0.707107   
     length 1.56195   
     axis -90 -45 -2.85299e-015   XYZ
    dof rx rz
    limits (-45.0 45.0)
           (-45.0 45.0)
  end
:hierarchy
  begin
    root lhipjoint rhipjoint lowerback
    lhipjoint lfemur
    lfemur ltibia
    ltibia lfoot
    lfoot ltoes
    rhipjoint rfemur
    rfemur rtibia
    rtibia rfoot
    rfoot rtoes
    lowerback upperback
    upperback thorax
    thorax lowerneck lclavicle rclavicle
    lowerneck upperneck
    upperneck head
    lclavicle lhumerus
    lhumerus lradius
    lradius lwrist
    lwrist lhand lthumb
    lhand lfingers
    rclavicle rhumerus
    rhumerus rradius
    rradius rwrist
    rwrist rhand rthumb
    rhand rfingers
  end

#!OML:ASF X:\für Bonn\!DataBase\2005_08_10_Bjorn_Final\c3d\bjorn.ASF
:FULLY-SPECIFIED
:DEGREES
1
root 5.22882 15.6429 -10.2627 12.8907 -4.26227 1.87154
lowerback 17.9761 -0.134229 -1.59578
upperback 12.9464 -0.410439 -0.93673
thorax 3.86661 -0.28268 -0.0379392
lowerneck -10.9308 -0.0775442 3.03057
upperneck -19.7433 -0.465836 -0.584333
head -4.74136 -0.456097 -0.719424
rclavicle -1.5704e-014 3.97569e-016
rhumerus -25.9712 -42.5611 -75.4099
rradius 34.2861
rwrist -158.571
rhand -5.34333e-013 -6.05896e-013
rfingers 7.12502
rthumb 25.5904 -28.3008
lclavicle -1.5704e-014 3.97569e-016
lhumerus -17.9717 -2.09546 89.1265
lradius 39.4297
lwrist -14.2633
lhand -7.95536e-013 -4.90998e-013
lfingers 7.12502
lthumb 25.5904 28.3008
rfemur -57.655 -5.41604 14.5873
rtibia 87.4578
rfoot -35.7378 8.16928
rtoes -18.5782
lfemur -60.0956 2.41141 -20.2943
ltibia 86.9794
lfoot -28.4442 6.12065
ltoes -27.7968
2
root 5.23804 15.4646 -10.1362 13.0572 -4.16336 1.90743
lowerback 18.3194 -0.191608 -1.47496
upperback 12.9075 -0.475818 -0.915275
thorax 3.64746 -0.306622 -0.0712562
lowerneck -10.9195 -0.0257258 3.13412
upperneck -21.1275 -0.425931 -0.733596
head -4.64505 -0.446167 -0.752126
rclavicle 2.38542e-015 -6.26172e-015
rhumerus -27.811 -45.3492 -73.5633
rradius 33.232
rwrist -158.417
rhand 1.54893e-012 -1.78747e-012
rfingers 7.12502
rthumb 25.5904 -28.3008
lclavicle 2.38542e-015 -6.26172e-015
lhumerus -18.5649 -0.984966 88.9059
lradius 38.3612
lwrist -13.5857
lhand -8.55768e-013 -7.54785e-013
lfingers 7.12502
lthumb 25.5904 28.3008
rfemur -58.4257 -5.16468 14.3415
rtibia 89.5926
rfoot -36.7024 7.59891
rtoes -20.8108
lfemur -60.9169 2.31643 -20.4199
ltibia 89.0828
lfoot -29.3223 6.76284
ltoes -29.9354
3
root 5.24689 15.3092 -10.0074 13.2098 -4.0757 1.93321
lowerback 18.7153 -0.250845 -1.34409
upperback 12.8037 -0.542779 -0.906291
thorax 3.32976 -0.32977 -0.121655
lowerneck -10.9911 0.0424359 3.2879
upperneck -21.9382 -0.372433 -0.89837
head -4.88973 -0.432642 -0.832202
rclavicle -1.00386e-014 3.97569e-015
rhumerus -29.7637 -47.0976 -71.9369
rradius 32.7968
rwrist -158.961
rhand 5.40694e-014 -4.0393e-013
rfingers 7.12502
rthumb 25.5904 -28.3008
lclavicle -1.00386e-014 3.97569e-015
lhumerus -19.3641 0.142825 88.6388
lradius 37.5856
lwrist -12.8863
lhand -1.40446e-012 -1.40446e-012
lfingers 7.12502
lthumb 25.5904 28.3008
rfemur -59.0386 -4.97227 14.1224
rtibia 91.4974
rfoot -37.4074 7.09096
rtoes -22.8997
lfemur -61.5615 2.21012 -20.5219
ltibia 90.9523
lfoot -30.0653 7.52651
ltoes -32.2532
4
root 5.2552 15.1733 -9.87675 13.3735 -4.0333 1.94976
lowerback 19.129 -0.296261 -1.21757
upperback 12.6474 -0.592312 -0.907415
thorax 2.94572 -0.344204 -0.181799
lowerneck -10.8945 0.110366 3.44888
upperneck -22.7701 -0.317212 -1.08122
head -5.16833 -0.417616 -0.920154
rclavicle -1.04362e-014 -3.57812e-015
rhumerus -31.5092 -47.6414 -70.8768
rradius 32.9423
rwrist -160.292
rhand 3.18055e-013 4.86625e-013
rfingers 7.12502
rthumb 25.5904 -28.3008
lclavicle -1.04362e-014 -3.57812e-015
lhumerus -20.2695 1.24548 88.3623
lradius 37.0727
lwrist -12.1727
lhand 5.83185e-014 3.8604e-013
lfingers 7.12502
lthumb 25.5904 28.3008
rfemur -59.5259 -4.7948 13.9
rtibia 93.1811
rfoot -37.9107 6.77898
rtoes -24.9245
lfemur -62.0882 2.14307 -20.6002
ltibia 92.6091
lfoot -30.6984 8.27318
ltoes -34.2269
5
root 5.26386 15.0615 -9.74379 13.6142 -4.03125 1.98325
lowerback 19.5081 -0.335336 -1.09756
upperback 12.4313 -0.63357 -0.941454
thorax 2.51359 -0.353812 -0.273792
lowerneck -10.5424 0.175747 3.64563
upperneck -23.78 -0.261499 -1.28126
head -5.54555 -0.40528 -1.02153
rclavicle -1.19271e-014 -1.33186e-014
rhumerus -32.8785 -47.1648 -70.5093
rradius 33.6428
rwrist -162.344
rhand -1.15454e-012 -1.04322e-012
rfingers 7.12502
rthumb 25.5904 -28.3008
lclavicle -1.19271e-014 -1.33186e-014
lhumerus -21.2282 2.22151 88.0238
lradius 36.875
lwrist -11.4711
lhand -1.9471e-013 0
lfingers 7.12502
lthumb 25.5904 28.3008
rfemur -60.0086 -4.69098 13.6565
rtibia 94.6828
rfoot -38.2277 6.64401
rtoes -26.5948
lfemur -62.5373 2.04925 -20.6712
ltibia 94.0149
lfoot -31.2914 8.6875
ltoes -35.2875
6
root 5.27174 14.9733 -9.60802 13.8951 -4.05528 1.99588
lowerback 19.8533 -0.377062 -0.950449
upperback 12.1837 -0.67323 -1.0067
thorax 2.06433 -0.360619 -0.41414
lowerneck -10.0283 0.233431 3.931
upperneck -24.8829 -0.227589 -1.54928
head -5.98286 -0.407911 -1.16198
rclavicle -1.21259e-014 4.67144e-015
rhumerus -33.6577 -45.861 -70.905
rradius 34.6312
rwrist -164.58
rhand -1.02732e-012 -4.51639e-013
rfingers 7.12502
rthumb 25.5904 -28.3008
lclavicle -1.21259e-014 4.67144e-015
lhumerus -22.2354 2.86882 87.6336
lradius 37.0602
lwrist -10.7312
lhand -5.37116e-013 -8.3092e-013
lfingers 7.12502
lthumb 25.5904 28.3008
rfemur -60.4656 -4.60842 13.4415
rtibia 96.0114
rfoot -38.4256 6.47325
rtoes -28.4363
lfemur -62.8841 1.97083 -20.6979
ltibia 95.1875
lfoot -31.838 8.85498
ltoes -35.9498
7
root 5.27966 14.905 -9.4716 14.2071 -4.10565 2.00903
lowerback 20.1052 -0.409386 -0.862632
upperback 11.9352 -0.707572 -1.02467
thorax 1.66309 -0.370939 -0.472357
lowerneck -9.83414 0.295726 3.94627
upperneck -25.509 -0.145954 -1.60502
head -6.21653 -0.371702 -1.1879
rclavicle 6.65929e-015 4.17448e-015
rhumerus -34.1142 -44.4904 -71.49
rradius 35.7709
rwrist -166.639
rhand 7.76055e-013 -6.64736e-013
rfingers 7.12502
rthumb 25.5904 -28.3008
lclavicle 6.65929e-015 4.17448e-015
lhumerus -23.274 3.45402 87.3128
lradius 37.643
lwrist -9.91883
lhand -1.20377e-013 -1.54257e-013
lfingers 7.12502
lthumb 25.5904 28.3008
rfemur -60.8469 -4.5124 13.2153
rtibia 97.1139
rfoot -38.5678 6.25692
rtoes -30.4968
lfemur -63.1383 1.89942 -20.7071
ltibia 96.1421
lfoot -32.3747 8.6474
ltoes -35.9107
